<?xml version="1.0" standalone="no"?>
<!DOCTYPE svg PUBLIC "-//W3C//DTD SVG 20010904//EN"
 "http://www.w3.org/TR/2001/REC-SVG-20010904/DTD/svg10.dtd">
<svg version="1.0" xmlns="http://www.w3.org/2000/svg"
 width="700.000000pt" height="700.000000pt" viewBox="0 0 700.000000 700.000000"
 preserveAspectRatio="xMidYMid meet">
<metadata>
Created by potrace 1.14, written by Peter Selinger 2001-2017
</metadata>
<g transform="translate(0.000000,700.000000) scale(0.100000,-0.100000)"
fill="#000000" stroke="none">
<path d="M3455 6966 c-22 -14 -51 -31 -65 -38 -55 -31 -417 -242 -440 -257
-14 -9 -30 -18 -36 -21 -5 -3 -137 -79 -291 -169 l-281 -164 81 -49 c44 -26
82 -48 83 -48 3 0 178 -101 224 -129 8 -5 80 -47 159 -93 195 -112 199 -115
422 -244 l196 -114 117 67 c64 38 131 76 149 87 18 10 118 68 222 128 105 61
202 119 217 129 15 10 30 19 33 19 3 0 22 11 43 23 20 13 57 35 82 49 161 91
280 164 281 173 0 6 -147 96 -328 200 -180 105 -434 252 -565 328 -130 75
-242 139 -250 142 -7 3 -31 -6 -53 -19z"/>
<path d="M2290 5966 l0 -254 143 -83 c78 -45 189 -110 247 -144 58 -34 128
-74 155 -89 72 -40 224 -131 222 -132 -3 -3 -802 -469 -1052 -614 -126 -73
-238 -139 -247 -148 -16 -13 -17 -66 -18 -684 l0 -669 37 26 c21 14 40 25 44
25 3 0 64 35 135 78 71 42 146 86 167 97 21 11 42 25 47 31 5 5 10 197 11 425
l1 415 120 70 c65 38 134 77 151 88 138 80 288 167 317 184 19 10 128 74 243
141 114 67 223 130 243 141 19 11 45 27 57 34 37 24 110 65 152 87 l40 21 135
-79 c74 -44 142 -82 150 -86 8 -4 29 -15 45 -26 27 -16 427 -249 500 -291 85
-49 290 -168 323 -188 20 -12 55 -31 77 -42 22 -11 51 -29 64 -39 l24 -18 -2
-415 -2 -416 217 -126 c120 -69 219 -124 222 -121 3 3 6 304 6 671 l1 666
-260 150 c-143 83 -273 158 -290 168 -16 9 -91 52 -165 95 -74 43 -238 138
-365 211 -126 73 -229 136 -229 140 1 4 19 18 40 30 22 12 91 52 154 89 63 37
135 79 160 93 39 22 201 117 240 142 8 5 32 18 52 29 21 11 55 31 76 45 l39
24 1 251 c0 138 -1 251 -3 251 -2 0 -136 -77 -297 -171 -161 -95 -309 -181
-328 -191 -19 -11 -73 -43 -120 -71 -47 -27 -100 -59 -119 -69 -19 -11 -103
-60 -188 -109 l-154 -91 -262 152 c-144 83 -269 155 -277 160 -54 32 -533 310
-574 333 -27 16 -59 35 -70 43 -11 8 -24 14 -28 14 -5 0 -8 -114 -8 -254z"/>
<path d="M1220 5669 c-256 -149 -516 -300 -578 -336 -123 -73 -121 -66 -38
-112 64 -36 988 -572 1039 -603 l48 -29 52 29 c94 51 491 284 519 303 15 10
29 19 32 19 4 0 280 160 381 221 17 10 63 36 104 59 66 38 71 43 55 54 -11 7
-104 63 -209 124 -259 151 -742 430 -785 454 -19 11 -60 35 -91 54 -31 19 -58
34 -61 34 -2 0 -213 -122 -468 -271z"/>
<path d="M4900 5704 c-223 -129 -441 -257 -485 -283 -44 -26 -119 -69 -167
-97 -48 -27 -88 -52 -88 -56 0 -3 53 -37 118 -74 342 -198 868 -503 948 -550
l91 -54 379 221 c208 122 395 230 414 241 160 91 360 212 360 217 -1 6 -1136
664 -1155 669 -5 1 -192 -104 -415 -234z"/>
<path d="M475 4499 l0 -672 525 -304 c526 -306 627 -363 635 -363 2 0 5 226 5
503 1 276 2 576 2 665 0 127 -3 167 -13 176 -8 7 -93 58 -189 113 -96 55 -328
189 -515 298 -343 199 -440 255 -447 255 -1 0 -3 -302 -3 -671z"/>
<path d="M6312 5050 c-112 -66 -206 -120 -209 -120 -3 0 -17 -8 -31 -19 -15
-10 -47 -29 -72 -43 -25 -14 -119 -69 -209 -122 -90 -53 -165 -96 -167 -96 -1
0 -38 -21 -81 -48 -43 -26 -95 -56 -116 -67 -21 -11 -42 -25 -47 -30 -6 -8
-17 -1288 -11 -1338 1 -5 22 4 49 19 26 14 58 33 72 41 14 8 46 26 71 41 60
35 434 254 457 267 53 30 498 289 502 292 8 6 10 1343 3 1343 -5 0 -100 -54
-211 -120z"/>
<path d="M3215 4728 c-148 -87 -279 -163 -290 -169 -11 -5 -75 -42 -141 -82
-67 -40 -192 -112 -278 -162 -85 -49 -156 -93 -156 -97 0 -4 35 -27 78 -51 68
-38 852 -492 942 -545 19 -12 59 -34 87 -50 l53 -30 487 285 c486 284 525 306
616 358 26 15 47 30 47 33 0 4 -172 106 -382 227 -209 121 -399 231 -422 244
-23 13 -110 63 -194 112 -84 49 -159 89 -165 88 -7 -1 -133 -73 -282 -161z"/>
<path d="M2289 3929 c0 -107 -1 -408 -2 -671 l-2 -476 365 -211 c201 -117 376
-218 390 -226 199 -118 405 -234 408 -231 2 3 5 304 6 670 l2 666 -38 25 c-21
14 -40 25 -43 25 -2 0 -50 27 -105 60 -55 33 -103 60 -105 60 -3 0 -24 12 -46
26 -23 14 -101 60 -173 102 -181 104 -412 238 -529 306 -53 31 -104 59 -112
62 -13 5 -15 -20 -16 -187z"/>
<path d="M4665 4095 c-22 -14 -47 -28 -55 -32 -8 -4 -113 -65 -234 -135 -120
-71 -237 -139 -260 -152 -22 -13 -120 -69 -216 -126 -96 -56 -195 -114 -220
-128 -25 -14 -62 -36 -82 -49 l-38 -23 0 -128 c-1 -70 -2 -369 -3 -665 -1
-297 1 -541 4 -543 3 -2 27 10 53 26 26 17 48 30 50 30 2 0 77 43 167 96 90
53 180 106 199 117 155 87 658 383 670 394 13 11 15 105 16 678 1 366 -1 665
-5 665 -3 -1 -24 -12 -46 -25z"/>
<path d="M2585 2263 c-99 -58 -192 -113 -207 -120 -16 -8 -28 -18 -28 -22 0
-4 19 -18 43 -31 23 -13 193 -111 377 -218 184 -108 349 -203 365 -212 17 -9
65 -38 108 -64 43 -25 80 -46 82 -46 3 0 44 -24 93 -53 l88 -53 30 17 c27 15
903 525 1061 617 35 21 63 39 63 42 0 5 -220 135 -344 203 -28 16 -55 33 -61
38 -12 12 -48 12 -60 0 -9 -8 -104 -65 -230 -136 -22 -13 -96 -56 -165 -97
-69 -41 -132 -77 -140 -81 -8 -4 -37 -21 -65 -37 -98 -60 -72 -66 -297 66
-112 65 -216 125 -233 134 -16 9 -85 48 -152 88 -67 40 -128 72 -135 72 -7 -1
-94 -49 -193 -107z"/>
<path d="M2289 1818 c0 -117 -1 -420 -2 -673 l-2 -460 330 -193 c182 -106 336
-195 344 -199 8 -4 102 -57 208 -120 106 -62 213 -124 238 -138 l45 -25 1 53
c0 28 1 330 3 670 l2 619 -27 19 c-15 10 -29 19 -32 19 -2 0 -56 30 -118 66
-155 91 -275 160 -394 229 -55 32 -154 89 -220 128 -66 39 -138 80 -160 92
-42 23 -127 73 -182 107 l-33 20 -1 -214z"/>
<path d="M4685 2011 c-6 -6 -21 -16 -35 -23 -14 -7 -110 -62 -213 -123 -103
-60 -212 -123 -241 -140 -29 -16 -184 -106 -344 -200 l-292 -170 0 -165 c-1
-91 -2 -393 -3 -673 -1 -279 -1 -507 0 -507 2 0 136 78 559 325 142 83 273
159 293 170 20 12 55 33 78 48 24 15 44 27 47 27 2 0 44 24 92 53 l89 52 2
668 c1 674 0 690 -32 658z"/>
</g>
</svg>
