<?xml version="1.0" encoding="UTF-8" standalone="no"?>
<!-- Created with Inkscape (http://www.inkscape.org/) -->

<svg
   xmlns:dc="http://purl.org/dc/elements/1.1/"
   xmlns:cc="http://creativecommons.org/ns#"
   xmlns:rdf="http://www.w3.org/1999/02/22-rdf-syntax-ns#"
   xmlns:svg="http://www.w3.org/2000/svg"
   xmlns="http://www.w3.org/2000/svg"
   xmlns:sodipodi="http://sodipodi.sourceforge.net/DTD/sodipodi-0.dtd"
   xmlns:inkscape="http://www.inkscape.org/namespaces/inkscape"
   width="93.209755mm"
   height="234.63887mm"
   viewBox="0 0 93.209755 234.63887"
   version="1.1"
   id="svg8"
   sodipodi:docname="klic.svg"
   inkscape:version="0.92.4 (5da689c313, 2019-01-14)">
  <defs
     id="defs2" />
  <sodipodi:namedview
     id="base"
     pagecolor="#ffffff"
     bordercolor="#666666"
     borderopacity="1.0"
     inkscape:pageopacity="0.0"
     inkscape:pageshadow="2"
     inkscape:zoom="0.7"
     inkscape:cx="-65.704961"
     inkscape:cy="414.08703"
     inkscape:document-units="mm"
     inkscape:current-layer="layer1"
     showgrid="false"
     inkscape:window-width="1846"
     inkscape:window-height="1053"
     inkscape:window-x="65"
     inkscape:window-y="-9"
     inkscape:window-maximized="1" />
  <metadata
     id="metadata5">
    <rdf:RDF>
      <cc:Work
         rdf:about="">
        <dc:format>image/svg+xml</dc:format>
        <dc:type
           rdf:resource="http://purl.org/dc/dcmitype/StillImage" />
      </cc:Work>
    </rdf:RDF>
  </metadata>
  <g
     inkscape:label="Vrstva 1"
     inkscape:groupmode="layer"
     id="layer1"
     transform="translate(-56.117684,-31.283038)">
    <path
       style="fill:#000000;stroke-width:0.96677375"
       d="m 91.574354,263.67062 c -7.51433,-3.50977 -12.800193,-10.45214 -13.918698,-18.28061 -0.439117,-3.07335 -0.03527,-4.87163 1.804862,-8.03677 5.788822,-9.95715 20.021432,-10.00477 25.716132,-0.086 2.84185,4.94979 2.87761,7.56584 0.17378,12.7103 -2.26055,4.30105 -6.02223,6.70457 -11.985045,7.65785 l -3.525727,0.56365 2.692189,1.64967 c 3.998525,2.45016 12.513813,2.96891 19.227273,1.17132 6.70207,-1.79455 10.71027,-5.67997 13.20808,-12.80352 2.29803,-6.55373 2.07562,-12.42214 -0.97989,-25.85494 l -2.64919,-11.64655 -9.08614,0.40011 c -17.145304,0.75501 -28.943667,-3.45235 -41.073471,-14.64703 -11.00828,-10.15963 -15.00995,-18.68466 -15.06047,-32.08437 -0.0651,-17.27369 8.83258,-32.91899 29.41358,-51.71944 L 96.483131,102.66019 94.31842,93.643702 C 91.309348,81.110309 90.669773,66.052738 92.793644,57.745769 96.61046,42.817279 105.54226,31.270544 113.26346,31.283048 c 10.27104,0.01664 17.1938,10.866431 18.13224,28.418002 0.9913,18.540104 -5.66694,35.270314 -21.67472,54.46223 l -4.51445,5.41242 2.74482,11.81821 2.7448,11.81823 4.68201,-0.037 c 7.51614,-0.0593 11.71199,1.11536 18.16839,5.08646 12.0869,7.43417 17.52509,18.44918 15.28903,30.96782 -2.12035,11.8707 -8.95732,22.27657 -17.75736,27.02663 -2.45865,1.32713 -4.47027,2.94345 -4.47027,3.59183 0,0.64841 1.17486,5.93217 2.61079,11.7417 5.47685,22.15838 2.41262,34.44066 -10.30499,41.30535 -3.96949,2.14264 -6.18639,2.625 -13.38987,2.91337 -7.77762,0.31138 -9.159436,0.0996 -13.949526,-2.13774 z m 27.724226,-58.34237 c 0.61504,-0.56649 -8.82911,-43.56065 -9.93931,-45.24839 -1.2885,-1.95878 -9.88044,3.93088 -12.42346,8.51612 -1.973948,3.55916 -2.745478,8.9162 -1.970057,13.67889 0.545426,3.35004 1.712784,5.30797 5.229177,8.77053 5.06364,4.98611 4.95011,5.29711 -0.92572,2.53612 -6.196717,-2.91178 -12.646733,-8.87014 -14.536928,-13.42885 -4.830511,-11.65005 3.218096,-27.59238 17.042068,-33.7562 l 4.3796,-1.95275 -2.36589,-9.88348 c -1.30124,-5.43591 -2.50662,-10.01309 -2.67863,-10.17152 -0.85776,-0.79006 -25.746651,25.38062 -28.144811,29.5943 -5.71409,10.03982 -5.62091,20.92732 0.27349,31.95538 5.246341,9.81561 14.926577,17.19306 25.915431,19.75056 3.8644,0.89939 19.0726,0.62707 20.14504,-0.36071 z m 11.15288,-5.88187 c 7.39289,-6.54795 10.37891,-19.56715 6.33088,-27.60299 -3.49058,-6.92922 -12.10312,-12.52572 -19.27607,-12.52572 -2.49595,0 -3.02018,0.32571 -2.61327,1.6237 0.63295,2.01904 9.70025,40.79586 9.70025,41.48367 0,1.34032 2.30534,0.16815 5.85821,-2.97866 z M 109.44886,91.831463 c 9.29607,-9.580175 15.94215,-25.332105 14.83961,-35.171451 -1.01956,-9.098802 -4.20124,-10.781946 -12.19859,-6.453212 -13.00033,7.03669 -18.259694,27.622865 -12.05291,47.177432 0.73814,2.325542 3.14521,0.905424 9.41189,-5.552769 z"
       id="path826"
       inkscape:connector-curvature="0" />
  </g>
</svg>
