<?xml version="1.0" encoding="UTF-8" standalone="no"?>
<!-- Created with Inkscape (http://www.inkscape.org/) -->

<svg
   xmlns:dc="http://purl.org/dc/elements/1.1/"
   xmlns:cc="http://creativecommons.org/ns#"
   xmlns:rdf="http://www.w3.org/1999/02/22-rdf-syntax-ns#"
   xmlns:svg="http://www.w3.org/2000/svg"
   xmlns="http://www.w3.org/2000/svg"
   xmlns:sodipodi="http://sodipodi.sourceforge.net/DTD/sodipodi-0.dtd"
   xmlns:inkscape="http://www.inkscape.org/namespaces/inkscape"
   width="177.72865mm"
   height="166.41751mm"
   viewBox="0 0 177.72865 166.41751"
   version="1.1"
   id="svg8"
   inkscape:version="0.92.4 (5da689c313, 2019-01-14)"
   sodipodi:docname="light.svg">
  <defs
     id="defs2" />
  <sodipodi:namedview
     id="base"
     pagecolor="#ffffff"
     bordercolor="#666666"
     borderopacity="1.0"
     inkscape:pageopacity="0.0"
     inkscape:pageshadow="2"
     inkscape:zoom="0.35"
     inkscape:cx="-154.55606"
     inkscape:cy="233.47892"
     inkscape:document-units="mm"
     inkscape:current-layer="layer1"
     showgrid="false"
     inkscape:window-width="1846"
     inkscape:window-height="1053"
     inkscape:window-x="65"
     inkscape:window-y="-9"
     inkscape:window-maximized="1" />
  <metadata
     id="metadata5">
    <rdf:RDF>
      <cc:Work
         rdf:about="">
        <dc:format>image/svg+xml</dc:format>
        <dc:type
           rdf:resource="http://purl.org/dc/dcmitype/StillImage" />
        <dc:title />
      </cc:Work>
    </rdf:RDF>
  </metadata>
  <g
     inkscape:label="Vrstva 1"
     inkscape:groupmode="layer"
     id="layer1"
     transform="translate(-10.654863,-44.190453)">
    <path
       style="fill:#0078d7;stroke-width:1.51922679;fill-opacity:1"
       d="m 90.259357,206.50635 c -7.085403,-4.68184 -7.825309,-6.346 -8.714614,-19.60147 -0.844515,-12.58695 -5.845955,-27.17808 -14.346837,-41.85471 -6.720771,-11.60334 -7.430977,-13.76201 -7.399414,-22.49011 0.07816,-21.60175 17.095797,-37.09028 40.578268,-36.932113 20.28039,0.136541 36.79572,13.356301 39.84306,31.892493 1.35902,8.2669 -1.48029,18.12211 -8.07373,28.02312 -2.92607,4.39394 -6.89223,13.21247 -8.81375,19.59675 -1.92151,6.38424 -4.12596,12.74155 -4.89875,14.12725 -0.77279,1.38575 -1.40508,6.6477 -1.40508,11.69324 0,10.11553 -1.27095,12.35953 -9.54416,16.85146 -7.35781,3.99486 -9.441952,3.83688 -17.224993,-1.30591 z m 16.299553,-5.24702 c 7.36358,-2.57747 -2.49128,-4.73482 -11.536914,-2.52559 -2.773607,0.67744 -3.176236,1.21766 -1.590673,2.13442 2.489117,1.43927 9.533637,1.6492 13.127587,0.39101 z m -0.86411,-5.83002 c 7.89715,-1.4407 5.77435,-3.44603 -3.64776,-3.44603 -9.559912,0 -14.087299,1.08418 -12.752681,3.05398 1.020368,1.50596 9.220168,1.70195 16.400441,0.3921 z m -2.40922,-5.81972 c 11.05523,-1.38218 9.59226,-4.53624 -1.76634,-3.80814 -11.147759,0.71463 -13.621605,1.3704 -12.334842,3.26962 1.152393,1.70085 3.950109,1.80768 14.101182,0.53852 z m 2.32968,-6.33214 c 3.12772,0 5.00673,-0.5292 4.17556,-1.17632 -2.12905,-1.65731 -19.804111,-0.32574 -19.804111,1.49199 0,0.90397 1.971357,1.13842 4.970958,0.59116 2.733988,-0.49849 7.529933,-0.90683 10.657593,-0.90683 z m 7.77426,-10.51955 c 0.83749,-0.99753 2.43279,-5.66879 3.54514,-10.38052 1.11235,-4.71174 4.93687,-13.52637 8.49896,-19.58809 5.30168,-9.02209 6.48161,-12.46894 6.50482,-19.00168 0.0697,-19.57959 -19.63932,-35.123893 -38.770326,-30.578007 -14.949848,3.55242 -25.323671,15.980997 -25.406277,30.438597 -0.03607,6.29287 1.041411,9.61266 5.457214,16.81522 3.026115,4.93586 7.045001,14.13975 8.930867,20.45302 1.885926,6.31328 3.747142,11.96841 4.136062,12.56694 1.240169,1.90853 25.43592,1.26088 27.10354,-0.72548 z m -90.74248,-7.51152 c -1.034076,-2.45803 -0.147897,-3.14376 13.085445,-10.12689 9.852397,-5.19899 14.504956,-5.84056 14.470026,-1.99524 -0.01804,1.76321 -22.096393,14.1925 -25.212689,14.1925 -0.809524,0 -1.86374,-0.93168 -2.342782,-2.07037 z m 139.41042,-3.75681 c -12.7076,-6.42733 -13.60597,-7.20886 -11.63336,-10.12026 1.65404,-2.44119 5.24072,-1.16776 18.49691,6.56729 7.97086,4.65104 10.07701,7.74219 6.06834,8.90638 -0.82017,0.23801 -6.63955,-2.17083 -12.93189,-5.35341 z M 11.197597,126.61603 c -2.2254865,-3.28463 2.248814,-4.3896 16.101881,-3.9765 11.330164,0.33782 14.171106,0.85891 14.171106,2.59909 0,1.7461 -2.883448,2.25858 -14.584194,2.59205 -9.537965,0.27201 -14.966382,-0.14862 -15.688793,-1.21464 z m 147.188943,-1.32301 c 0,-2.76865 0.96693,-2.95637 15.22821,-2.95637 13.64542,0 15.17284,0.26377 14.69573,2.5392 -0.45332,2.1626 -2.71199,2.60105 -15.22822,2.95642 -13.87513,0.39374 -14.69572,0.25226 -14.69572,-2.53925 z M 34.76761,94.459347 C 22.984256,88.266292 19.853412,85.12709 24.009494,83.672347 27.375771,82.494064 50.44606,94.803918 49.877559,97.475053 49.092563,101.16375 46.563346,100.65895 34.76761,94.459347 Z m 115.79429,4.077896 c -2.08613,-2.292855 0.76503,-4.499273 15.3265,-11.860866 6.23939,-3.154395 8.74961,-3.782036 10.12139,-2.530808 1.00323,0.915162 1.37923,2.320605 0.83543,3.123178 -0.83285,1.229181 -22.58908,13.303333 -23.97108,13.303333 -0.25371,0 -1.29398,-0.915662 -2.31224,-2.034837 z M 65.599777,76.993794 C 52.886659,58.047218 51.418632,54.140975 57.011118,54.140975 c 2.817255,0 16.01687,21.292726 14.877883,24.000116 -1.286461,3.058098 -3.77161,2.604738 -6.289224,-1.147297 z m 62.639613,1.856605 c -1.69949,-0.958119 -0.66385,-3.632221 4.87411,-12.584988 6.73165,-10.882587 12.54748,-15.413787 12.54748,-9.776029 0,2.544186 -11.6366,21.532982 -14.01864,22.875851 -0.68465,0.386069 -2.21599,0.1541 -3.40295,-0.51495 z M 96.68746,58.14774 c 0.389581,-11.416838 0.870246,-13.476952 3.241105,-13.890609 2.494345,-0.435429 2.783705,0.957997 2.783705,13.404892 0,13.008568 -0.20561,13.890609 -3.241103,13.890609 -3.060083,0 -3.215495,-0.748504 -2.783707,-13.404892 z"
       id="path837"
       inkscape:connector-curvature="0" />
  </g>
</svg>
